<svg id="svg" version="1.1" xmlns="http://www.w3.org/2000/svg" xmlns:xlink="http://www.w3.org/1999/xlink" width="80" height="80" viewBox="0, 0, 400,400"><g id="svgg"><path id="path0" d="M54.400 29.669 C 54.400 29.927,54.974 32.537,55.675 35.469 L 56.949 40.799 190.886 40.899 L 324.822 41.000 307.311 60.224 C 297.680 70.798,288.990 80.428,288.000 81.624 C 286.111 83.908,245.728 128.166,226.159 149.400 C 219.873 156.220,213.353 163.420,211.670 165.400 C 207.150 170.715,172.205 209.103,169.978 211.200 C 168.012 213.050,157.517 224.592,153.602 229.208 C 149.934 233.533,106.941 280.730,102.962 284.800 C 100.918 286.890,89.424 299.400,77.418 312.600 C 65.413 325.800,55.265 336.653,54.869 336.718 C 54.186 336.830,51.128 348.062,51.641 348.574 C 51.912 348.846,60.821 348.860,207.018 348.829 L 345.837 348.800 347.119 343.300 C 347.825 340.275,348.401 337.575,348.401 337.301 C 348.400 336.903,321.140 336.781,214.128 336.701 L 79.857 336.600 94.228 320.848 C 102.133 312.184,108.669 304.911,108.754 304.687 C 108.976 304.094,149.345 259.776,154.194 254.800 C 156.446 252.490,166.458 241.560,176.444 230.512 C 218.314 184.187,229.970 171.342,233.000 168.186 C 234.760 166.353,237.010 163.896,238.000 162.727 C 241.387 158.725,284.872 111.004,287.140 108.800 C 288.385 107.590,302.881 91.795,319.353 73.700 C 338.678 52.470,349.567 40.800,350.051 40.800 C 351.022 40.800,351.021 40.784,349.525 34.531 L 348.250 29.200 201.325 29.200 C 89.184 29.200,54.400 29.311,54.400 29.669 " stroke="none" fill="#bc6ff1" fill-rule="evenodd"></path><path id="path1" d="M102.800 182.467 C 102.800 238.823,102.869 284.858,102.953 284.767 C 103.037 284.675,114.557 272.021,128.553 256.648 L 154.000 228.696 154.000 219.748 L 154.000 210.800 162.150 210.800 L 170.301 210.800 190.433 188.700 L 210.565 166.600 182.283 166.497 L 154.000 166.395 154.000 123.197 L 154.000 80.000 128.400 80.000 L 102.800 80.000 102.800 182.467 M237.200 108.689 C 237.200 136.647,237.219 137.358,237.942 136.589 C 249.564 124.233,288.000 81.396,288.000 80.799 C 288.000 80.009,287.726 80.000,262.600 80.000 L 237.200 80.000 237.200 108.689 M262.600 135.768 C 240.002 160.623,237.387 163.635,237.276 164.942 C 237.162 166.282,237.048 166.402,235.876 166.428 C 234.710 166.454,232.867 168.364,214.545 188.528 L 194.489 210.600 215.845 210.703 L 237.200 210.807 237.200 257.803 L 237.200 304.800 262.600 304.800 L 288.000 304.800 288.000 206.400 C 288.000 152.280,287.955 108.012,287.900 108.026 C 287.845 108.040,276.460 120.524,262.600 135.768 M131.339 279.935 L 108.878 304.600 131.302 304.703 C 143.636 304.760,153.790 304.744,153.866 304.667 C 153.943 304.590,153.960 293.444,153.903 279.899 L 153.800 255.270 131.339 279.935 " stroke="none" fill="#bc6ff1" fill-rule="evenodd"></path><path id="path2" d="" stroke="none" fill="#bc6ff1" fill-rule="evenodd"></path><path id="path3" d="" stroke="none" fill="#bc6ff1" fill-rule="evenodd"></path><path id="path4" d="" stroke="none" fill="#bc6ff1" fill-rule="evenodd"></path></g></svg>